# xmcd
#
# Track frame offsets:
# 150
# 16923
# 28281
# 46098
# 60023
# 71066
# 88492
# 103249
# 116486
# 132260
# 150444
# 164610
# 178137
# 190122
# 208547
# 223659
# 239835
# 255337
# 269101
# 283556
#
# Disc length: 3955 seconds
#
#
# Revision: 0
# Processed by: cddbd v1.5.1PL0 Copyright (c) Steve Scherf et al.
# Submitted via: FreeRIP 2.942 
#
DISCID=2b0f7114
DTITLE=Vários - Clima de Rodeio CD 2
DYEAR=2005
DGENRE=Country
TTITLE0=Rick e Renner - De barretos a nashville
TTITLE1=Rio Negro e Solimões - Rei da festa
TTITLE2=Leandro e Leonardo - Dia de rodeio
TTITLE3=Edson e Hudson - Zoião
TTITLE4=César e Paulinho - Pé de bode
TTITLE5=Gino e Geno - Lorota
TTITLE6=Paula Hunter - Eu quero ser feliz
TTITLE7=Nalva Aguiar - Xonado eu tô
TTITLE8=Guilherme e Santiago - Se essa moda pega
TTITLE9=Edson e Hudson - Vai e vem
TTITLE10=Bruno e Marrone - Rei do rodeio
TTITLE11=Edson e Hudson - Me bate me xinga
TTITLE12=Gian e Giovani - Hey, hey, trem bão
TTITLE13=Chitãozinho e Xororó - Peão de rodeio
TTITLE14=Di Paulo e Paulino - Não ponh~e a mão no meu chapéu
TTITLE15=João Paulo e Daniel - Rosto molhado
TTITLE16=Danny e Daniel - Cavalo baio
TTITLE17=Jean e Javê - Paixão no Barretão
TTITLE18=Banda Nechivile - A cana perde a paia
TTITLE19=Banda Colorado - Explode Coração
EXTD=
EXTT0=
EXTT1=
EXTT2=
EXTT3=
EXTT4=
EXTT5=
EXTT6=
EXTT7=
EXTT8=
EXTT9=
EXTT10=
EXTT11=
EXTT12=
EXTT13=
EXTT14=
EXTT15=
EXTT16=
EXTT17=
EXTT18=
EXTT19=
PLAYORDER=
